<svg xmlns="http://www.w3.org/2000/svg" xmlns:xlink="http://www.w3.org/1999/xlink" version="1.1" x="0px" y="0px" viewBox="0 0 100 125" style="enable-background:new 0 0 100 100;" xml:space="preserve"><path d="M68.1,5.8l3.7,4c0,0-5.1-1.3-5.1,5.7s10.8,5.3,10.8,0S74.8,4,66.7,4c-8.1,0-18.2,8.5-18.2,29.7c0,14.8,0,12.4,0,12.4  s0.2,4.9-2.5,5.5c2.6,1,2.4,4.3,2.4,4.7s4.4,34.6-16.7,37.8c-4.5-5.2-4.5-5.2-4.5-5.2s7.3,0.9,7.3-6.3s-8-6.7-8-6.7  s-7.8,1.4-7.2,8.7c0.6,7.3,7.1,12.8,15,12.8S56.5,89,56.5,63.5c0-3.5,0-6.8,2-8.1c-2.1-0.9-2.2-5.4-2.2-8.6  C56.3,46.8,52.9,4.3,68.1,5.8z"/><text transform="matrix(1 0 0 1 3.8281 111.1592)"><tspan x="0" y="0" style="" font-family="'MyriadPro-Regular'" font-size="3.3383px">by Chris Scarlat</tspan><tspan x="0" y="4" style="" font-family="'MyriadPro-Regular'" font-size="3.3383px">www.cultural.design</tspan></text><text x="0" y="115" fill="#000000" font-size="5px" font-weight="bold" font-family="'Helvetica Neue', Helvetica, Arial-Unicode, Arial, Sans-serif">Created by Cristian Scarlat</text><text x="0" y="120" fill="#000000" font-size="5px" font-weight="bold" font-family="'Helvetica Neue', Helvetica, Arial-Unicode, Arial, Sans-serif">from the Noun Project</text></svg>